#Comment line ignore any data following # character 
#Hierarchical Translation and Rotation (.htr) file 
[Header]	
#Header keywords are followed by a single value 
FileType HTR		#Single word string
DataType HTRS		#Translation followed by rotation and scale data
FileVersion 1		#integer
NumSegments 84		#integer
NumFrames 2		#integer
DataFrameRate 30		#integer, data frame rate in this file
EulerRotationOrder ZYX
CalibrationUnits mm
RotationUnits Degrees
GlobalAxisofGravity Y
BoneLengthAxis Y
ScaleFactor 1.00
[SegmentNames&Hierarchy]
#CHILD	PARENT
MASTER GLOBAL
root MASTER
chest root
L_mid_tent01 root
R_mid_tent01 root
spine01 root
Bip01_Neck chest
L_humerus chest
R_humerus chest
weapon_bone chest
Bip01_Head Bip01_Neck
eye_left_bone Bip01_Head
eye_right_bone Bip01_Head
L_forearm L_humerus
L_front_hand L_forearm
L_weapon_bone L_forearm
L_front_hand01_01 L_front_hand
L_front_hand02_01 L_front_hand
L_front_hand03_01 L_front_hand
L_front_hand01_02 L_front_hand01_01
L_front_hand02_02 L_front_hand02_01
L_front_hand03_02 L_front_hand03_01
R_forearm R_humerus
R_front_hand R_forearm
R_weapon_bone R_forearm
R_front_hand01_01 R_front_hand
R_front_hand02_01 R_front_hand
R_front_hand03_01 R_front_hand
R_front_hand01_02 R_front_hand01_01
R_front_hand02_02 R_front_hand02_01
R_front_hand03_02 R_front_hand03_01
null_rope01_connect L_mid_tent01
Rope1_Seg01 null_rope01_connect
Rope1_Seg02 Rope1_Seg01
Rope1_Seg03 Rope1_Seg02
Rope1_Seg04 Rope1_Seg03
Rope1_Seg05 Rope1_Seg04
Rope1_Seg06 Rope1_Seg05
Rope1_Seg07 Rope1_Seg06
Rope1_Seg09 Rope1_Seg07
L_mid_hand01 Rope1_Seg09
L_mid_hand02 Rope1_Seg09
L_mid_hand03 Rope1_Seg09
null_rope02_connect R_mid_tent01
Rope2_Seg01 null_rope02_connect
Rope2_Seg02 Rope2_Seg01
Rope2_Seg03 Rope2_Seg02
Rope2_Seg04 Rope2_Seg03
Rope2_Seg05 Rope2_Seg04
Rope2_Seg06 Rope2_Seg05
Rope2_Seg07 Rope2_Seg06
Rope2_Seg09 Rope2_Seg07
R_mid_hand01 Rope2_Seg09
R_mid_hand02 Rope2_Seg09
R_mid_hand03 Rope2_Seg09
spine02 spine01
spine03 spine02
pelvis spine03
null_rope03_connect pelvis
null_rope04_connect pelvis
Rope3_Seg01 null_rope03_connect
Rope3_Seg02 Rope3_Seg01
Rope3_Seg03 Rope3_Seg02
Rope3_Seg04 Rope3_Seg03
Rope3_Seg05 Rope3_Seg04
Rope3_Seg06 Rope3_Seg05
Rope3_Seg07 Rope3_Seg06
Rope3_Seg08 Rope3_Seg07
Rope3_Seg09 Rope3_Seg08
R_rear_hand01 Rope3_Seg09
R_rear_hand02 Rope3_Seg09
R_rear_hand03 Rope3_Seg09
Rope4_Seg01 null_rope04_connect
Rope4_Seg02 Rope4_Seg01
Rope4_Seg03 Rope4_Seg02
Rope4_Seg04 Rope4_Seg03
Rope4_Seg05 Rope4_Seg04
Rope4_Seg06 Rope4_Seg05
Rope4_Seg07 Rope4_Seg06
Rope4_Seg08 Rope4_Seg07
Rope4_Seg09 Rope4_Seg08
L_rear_hand01 Rope4_Seg09
L_rear_hand02 Rope4_Seg09
L_rear_hand03 Rope4_Seg09
[BasePosition]
#SegmentName Tx, Ty, Tz, Rx, Ry, Rz, BoneLength
MASTER 0.000000 0.000000 0.000000 -90.000000 0.000000 0.000000 10.000000 
root 0.000000 0.000000 0.000000 0.000000 0.000000 0.000000 10.000000 
chest 0.000000 0.000000 0.000000 0.000000 0.000000 0.000000 10.000000 
L_mid_tent01 0.000000 0.000000 0.000000 0.000000 0.000000 0.000000 10.000000 
R_mid_tent01 0.000000 0.000000 0.000000 0.000000 0.000000 0.000000 10.000000 
spine01 0.000000 0.000000 0.000000 0.000000 0.000000 0.000000 10.000000 
Bip01_Neck 0.000000 0.000000 0.000000 0.000000 0.000000 0.000000 10.000000 
L_humerus 0.000000 0.000000 0.000000 0.000000 0.000000 0.000000 10.000000 
R_humerus 0.000000 0.000000 0.000000 0.000000 0.000000 0.000000 10.000000 
weapon_bone 0.000000 0.000000 0.000000 0.000000 0.000000 0.000000 10.000000 
Bip01_Head 0.000000 0.000000 0.000000 0.000000 0.000000 0.000000 10.000000 
eye_left_bone 0.000000 0.000000 0.000000 0.000000 0.000000 0.000000 10.000000 
eye_right_bone 0.000000 0.000000 0.000000 0.000000 0.000000 0.000000 10.000000 
L_forearm 0.000000 0.000000 0.000000 0.000000 0.000000 0.000000 10.000000 
L_front_hand 0.000000 0.000000 0.000000 0.000000 0.000000 0.000000 10.000000 
L_weapon_bone 0.000000 0.000000 0.000000 0.000000 0.000000 0.000000 10.000000 
L_front_hand01_01 0.000000 0.000000 0.000000 0.000000 0.000000 0.000000 10.000000 
L_front_hand02_01 0.000000 0.000000 0.000000 0.000000 0.000000 0.000000 10.000000 
L_front_hand03_01 0.000000 0.000000 0.000000 0.000000 0.000000 0.000000 10.000000 
L_front_hand01_02 0.000000 0.000000 0.000000 0.000000 0.000000 0.000000 10.000000 
L_front_hand02_02 0.000000 0.000000 0.000000 0.000000 0.000000 0.000000 10.000000 
L_front_hand03_02 0.000000 0.000000 0.000000 0.000000 0.000000 0.000000 10.000000 
R_forearm 0.000000 0.000000 0.000000 0.000000 0.000000 0.000000 10.000000 
R_front_hand 0.000000 0.000000 0.000000 0.000000 0.000000 0.000000 10.000000 
R_weapon_bone 0.000000 0.000000 0.000000 0.000000 0.000000 0.000000 10.000000 
R_front_hand01_01 0.000000 0.000000 0.000000 0.000000 0.000000 0.000000 10.000000 
R_front_hand02_01 0.000000 0.000000 0.000000 0.000000 0.000000 0.000000 10.000000 
R_front_hand03_01 0.000000 0.000000 0.000000 0.000000 0.000000 0.000000 10.000000 
R_front_hand01_02 0.000000 0.000000 0.000000 0.000000 0.000000 0.000000 10.000000 
R_front_hand02_02 0.000000 0.000000 0.000000 0.000000 0.000000 0.000000 10.000000 
R_front_hand03_02 0.000000 0.000000 0.000000 0.000000 0.000000 0.000000 10.000000 
null_rope01_connect 0.000000 0.000000 0.000000 0.000000 0.000000 0.000000 10.000000 
Rope1_Seg01 0.000000 0.000000 0.000000 0.000000 0.000000 0.000000 10.000000 
Rope1_Seg02 0.000000 0.000000 0.000000 0.000000 0.000000 0.000000 10.000000 
Rope1_Seg03 0.000000 0.000000 0.000000 0.000000 0.000000 0.000000 10.000000 
Rope1_Seg04 0.000000 0.000000 0.000000 0.000000 0.000000 0.000000 10.000000 
Rope1_Seg05 0.000000 0.000000 0.000000 0.000000 0.000000 0.000000 10.000000 
Rope1_Seg06 0.000000 0.000000 0.000000 0.000000 0.000000 0.000000 10.000000 
Rope1_Seg07 0.000000 0.000000 0.000000 0.000000 0.000000 0.000000 10.000000 
Rope1_Seg09 0.000000 0.000000 0.000000 0.000000 0.000000 0.000000 10.000000 
L_mid_hand01 0.000000 0.000000 0.000000 0.000000 0.000000 0.000000 10.000000 
L_mid_hand02 0.000000 0.000000 0.000000 0.000000 0.000000 0.000000 10.000000 
L_mid_hand03 0.000000 0.000000 0.000000 0.000000 0.000000 0.000000 10.000000 
null_rope02_connect 0.000000 0.000000 0.000000 0.000000 0.000000 0.000000 10.000000 
Rope2_Seg01 0.000000 0.000000 0.000000 0.000000 0.000000 0.000000 10.000000 
Rope2_Seg02 0.000000 0.000000 0.000000 0.000000 0.000000 0.000000 10.000000 
Rope2_Seg03 0.000000 0.000000 0.000000 0.000000 0.000000 0.000000 10.000000 
Rope2_Seg04 0.000000 0.000000 0.000000 0.000000 0.000000 0.000000 10.000000 
Rope2_Seg05 0.000000 0.000000 0.000000 0.000000 0.000000 0.000000 10.000000 
Rope2_Seg06 0.000000 0.000000 0.000000 0.000000 0.000000 0.000000 10.000000 
Rope2_Seg07 0.000000 0.000000 0.000000 0.000000 0.000000 0.000000 10.000000 
Rope2_Seg09 0.000000 0.000000 0.000000 0.000000 0.000000 0.000000 10.000000 
R_mid_hand01 0.000000 0.000000 0.000000 0.000000 0.000000 0.000000 10.000000 
R_mid_hand02 0.000000 0.000000 0.000000 0.000000 0.000000 0.000000 10.000000 
R_mid_hand03 0.000000 0.000000 0.000000 0.000000 0.000000 0.000000 10.000000 
spine02 0.000000 0.000000 0.000000 0.000000 0.000000 0.000000 10.000000 
spine03 0.000000 0.000000 0.000000 0.000000 0.000000 0.000000 10.000000 
pelvis 0.000000 0.000000 0.000000 0.000000 0.000000 0.000000 10.000000 
null_rope03_connect 0.000000 0.000000 0.000000 0.000000 0.000000 0.000000 10.000000 
null_rope04_connect 0.000000 0.000000 0.000000 0.000000 0.000000 0.000000 10.000000 
Rope3_Seg01 0.000000 0.000000 0.000000 0.000000 0.000000 0.000000 10.000000 
Rope3_Seg02 0.000000 0.000000 0.000000 0.000000 0.000000 0.000000 10.000000 
Rope3_Seg03 0.000000 0.000000 0.000000 0.000000 0.000000 0.000000 10.000000 
Rope3_Seg04 0.000000 0.000000 0.000000 0.000000 0.000000 0.000000 10.000000 
Rope3_Seg05 0.000000 0.000000 0.000000 0.000000 0.000000 0.000000 10.000000 
Rope3_Seg06 0.000000 0.000000 0.000000 0.000000 0.000000 0.000000 10.000000 
Rope3_Seg07 0.000000 0.000000 0.000000 0.000000 0.000000 0.000000 10.000000 
Rope3_Seg08 0.000000 0.000000 0.000000 0.000000 0.000000 0.000000 10.000000 
Rope3_Seg09 0.000000 0.000000 0.000000 0.000000 0.000000 0.000000 10.000000 
R_rear_hand01 0.000000 0.000000 0.000000 0.000000 0.000000 0.000000 10.000000 
R_rear_hand02 0.000000 0.000000 0.000000 0.000000 0.000000 0.000000 10.000000 
R_rear_hand03 0.000000 0.000000 0.000000 0.000000 0.000000 0.000000 10.000000 
Rope4_Seg01 0.000000 0.000000 0.000000 0.000000 0.000000 0.000000 10.000000 
Rope4_Seg02 0.000000 0.000000 0.000000 0.000000 0.000000 0.000000 10.000000 
Rope4_Seg03 0.000000 0.000000 0.000000 0.000000 0.000000 0.000000 10.000000 
Rope4_Seg04 0.000000 0.000000 0.000000 0.000000 0.000000 0.000000 10.000000 
Rope4_Seg05 0.000000 0.000000 0.000000 0.000000 0.000000 0.000000 10.000000 
Rope4_Seg06 0.000000 0.000000 0.000000 0.000000 0.000000 0.000000 10.000000 
Rope4_Seg07 0.000000 0.000000 0.000000 0.000000 0.000000 0.000000 10.000000 
Rope4_Seg08 0.000000 0.000000 0.000000 0.000000 0.000000 0.000000 10.000000 
Rope4_Seg09 0.000000 0.000000 0.000000 0.000000 0.000000 0.000000 10.000000 
L_rear_hand01 0.000000 0.000000 0.000000 0.000000 0.000000 0.000000 10.000000 
L_rear_hand02 0.000000 0.000000 0.000000 0.000000 0.000000 0.000000 10.000000 
L_rear_hand03 0.000000 0.000000 0.000000 0.000000 0.000000 0.000000 10.000000 
#Beginning of Data. Separated by tabs
#Fr	Tx	Ty	Tz	Rx	Ry	Rz	SF
[MASTER]
74 68.560455 16037.629883 -152.069000 0.001660 0.001660 0.001660 16038.497070
75 115.534622 16355.008789 -157.055634 0.001660 0.001660 0.001660 16356.170898
[root]
74 132.378738 -9.729167 1330.424683 -77.722450 -10.829802 -89.317528 1337.029785
75 109.700577 -5.921776 1351.560791 -82.763351 -10.559455 -85.344070 1356.018433
[chest]
74 -84.512650 -34.090519 0.000000 10.915914 -2.063715 178.126495 91.129311
75 -84.512650 -34.090519 0.000000 4.969400 -3.003607 178.550674 91.129311
[L_mid_tent01]
74 27.299717 22.179527 -249.918686 -4.951263 5.301738 31.474628 252.381760
75 27.299726 22.179531 -249.918686 -5.935289 8.846551 35.546860 252.381760
[R_mid_tent01]
74 23.228794 24.509907 226.238495 -175.445511 -12.790676 41.633591 228.744751
75 23.228794 24.509907 226.238495 -176.404007 -14.049928 42.966011 228.744751
[spine01]
74 -0.361383 -0.195265 0.000000 -0.000001 -0.000007 22.052340 0.410763
75 -0.361383 -0.195265 0.000000 -0.000001 -0.000007 22.052340 0.410763
[Bip01_Neck]
74 165.484543 71.581718 0.000119 176.643677 -1.657967 43.431911 180.302734
75 165.484543 71.581718 0.000119 176.643677 -1.657967 43.431911 180.302734
[L_humerus]
74 -13.983130 -135.272980 -120.471481 147.164063 77.759216 -121.383842 181.680161
75 -13.983130 -135.272980 -120.471481 138.944107 81.054352 -129.725708 181.680161
[R_humerus]
74 -13.983309 -135.273102 125.287651 -173.304871 -74.978691 -91.669403 184.909012
75 -13.983309 -135.273102 125.287651 -175.521912 -78.696823 -89.436699 184.909012
[weapon_bone]
74 235.964890 -300.705902 0.000000 0.000000 -89.951546 -128.212341 382.234833
75 235.964890 -300.705902 0.000000 0.000000 -89.951546 -128.212341 382.234833
[Bip01_Head]
74 213.443192 185.715729 11.777217 21.024027 2.993175 -44.175415 283.173157
75 213.443115 185.715698 11.777190 21.234762 3.131129 -44.052620 283.173065
[eye_left_bone]
74 -24.626970 125.451866 -64.772606 0.000000 -90.000000 -99.840431 143.318359
75 -24.626970 125.451866 -64.772606 0.000000 -90.000000 -99.840431 143.318359
[eye_right_bone]
74 -24.626970 125.451866 64.327362 0.000000 -89.965736 80.156380 143.117676
75 -24.626970 125.451866 64.327362 0.000000 -89.965736 80.156380 143.117676
[L_forearm]
74 322.776093 0.000000 -0.000119 0.000399 -0.002313 -109.588531 322.776093
75 322.776093 0.000000 -0.000119 0.000399 -0.002313 -109.563301 322.776093
[L_front_hand]
74 241.149185 -0.042021 -3.300071 -178.667953 -1.835447 -27.422350 241.171753
75 241.149185 -0.042021 -3.300071 -178.667953 -1.835447 -27.422350 241.171753
[L_weapon_bone]
74 156.183838 0.000000 0.000000 0.000014 0.000007 0.000001 156.183838
75 156.183838 0.000000 0.000000 0.000014 0.000007 0.000001 156.183838
[L_front_hand01_01]
74 86.095154 20.947098 -0.655860 -0.366594 -0.477154 75.385574 88.609184
75 86.095154 20.947098 -0.655860 -0.366594 -0.477154 75.385574 88.609184
[L_front_hand02_01]
74 86.935165 -11.437475 24.513514 154.399796 -59.883835 -61.369587 91.046425
75 86.935165 -11.437475 24.513514 154.399796 -59.883835 -61.369587 91.046425
[L_front_hand03_01]
74 86.637497 -14.123976 -20.424902 -153.913849 58.118122 -62.702866 90.126129
75 86.637497 -14.123976 -20.424902 -153.913849 58.118122 -62.702866 90.126129
[L_front_hand01_02]
74 71.020905 -0.000179 0.000030 0.000334 -0.002323 -106.379684 71.020905
75 71.020905 -0.000179 0.000030 0.000334 -0.002323 -106.379684 71.020905
[L_front_hand02_02]
74 71.020927 -0.000119 0.000060 0.000334 -0.002323 -106.379684 71.020927
75 71.020927 -0.000119 0.000060 0.000334 -0.002323 -106.379684 71.020927
[L_front_hand03_02]
74 71.020905 -0.000060 0.000060 0.000334 -0.002323 -106.379684 71.020905
75 71.020905 -0.000060 0.000060 0.000334 -0.002323 -106.379684 71.020905
[R_forearm]
74 322.776428 -0.000060 0.000030 0.202009 0.065448 -108.227707 322.776428
75 322.776428 -0.000060 0.000030 0.202023 0.065405 -108.203308 322.776428
[R_front_hand]
74 238.847015 -0.006795 2.210259 -2.635298 -10.645461 -26.312506 238.857239
75 238.847015 -0.006795 2.210259 -2.635298 -10.645461 -26.312506 238.857239
[R_weapon_bone]
74 155.664093 0.002503 -0.000030 0.003487 0.001180 -90.988930 155.664078
75 155.664093 0.002503 -0.000030 0.003487 0.001180 -90.988930 155.664078
[R_front_hand01_01]
74 87.624611 14.231146 22.918642 -154.633514 -59.950634 61.746063 91.683487
75 87.624611 14.231146 22.918642 -154.633499 -59.950619 61.746044 91.683487
[R_front_hand02_01]
74 89.356956 14.367283 -19.491137 154.602661 58.302849 63.744389 92.579636
75 89.356956 14.367283 -19.491137 154.602661 58.302849 63.744381 92.579636
[R_front_hand03_01]
74 87.286232 -22.307278 -0.143439 0.162155 -0.423168 -75.767921 90.091743
75 87.286232 -22.307278 -0.143439 0.162155 -0.423168 -75.767921 90.091743
[R_front_hand01_02]
74 71.020905 0.000060 0.000119 0.002323 -0.000334 106.381714 71.020905
75 71.020905 0.000060 0.000119 0.002323 -0.000334 106.381706 71.020905
[R_front_hand02_02]
74 71.020844 -0.000030 -0.000119 0.002323 -0.000334 106.381714 71.020836
75 71.020844 -0.000030 -0.000119 0.002323 -0.000334 106.381706 71.020836
[R_front_hand03_02]
74 71.020905 0.000000 0.000030 0.002323 -0.000334 106.381714 71.020905
75 71.020905 0.000000 0.000030 0.002323 -0.000334 106.381706 71.020905
[null_rope01_connect]
74 328.732483 0.000000 -0.000238 -2.154733 -84.442505 71.043930 328.732483
75 328.732483 0.000000 -0.000238 165.486160 -87.915123 -101.080414 328.732483
[Rope1_Seg01]
74 0.000038 -0.001078 0.000153 89.409187 -15.533245 -111.342407 0.001090
75 0.000038 -0.001092 0.000153 117.234352 -20.290333 -106.598831 0.001104
[Rope1_Seg02]
74 139.999863 -0.000179 0.000000 -1.186850 2.902656 -3.749478 139.999863
75 139.999863 -0.000179 0.000000 -12.592371 -0.572036 -5.017079 139.999863
[Rope1_Seg03]
74 139.999924 0.000060 -0.000060 -5.731925 2.547006 -6.419354 139.999924
75 139.999924 0.000060 -0.000060 -13.159797 -0.553572 -7.442454 139.999924
[Rope1_Seg04]
74 139.999924 -0.000060 -0.000119 -0.949135 6.766098 -8.096967 139.999924
75 139.999924 -0.000060 -0.000119 -13.511205 0.666503 -13.590159 139.999924
[Rope1_Seg05]
74 139.999832 0.000119 -0.000060 21.189251 11.909725 9.180713 139.999832
75 139.999832 0.000119 -0.000060 22.401373 14.588415 9.168769 139.999832
[Rope1_Seg06]
74 139.999954 0.000119 -0.000060 5.209095 4.526751 1.337367 139.999954
75 139.999954 0.000119 -0.000060 6.713211 6.406472 2.035119 139.999954
[Rope1_Seg07]
74 139.999985 0.000060 0.000000 2.088129 2.268752 0.191446 139.999985
75 139.999985 0.000060 0.000000 2.090484 2.766241 0.042252 139.999985
[Rope1_Seg09]
74 121.602913 0.000119 -0.000089 -89.793175 -1.359789 0.847147 121.602913
75 121.602913 0.000119 -0.000089 -89.793175 -1.359789 0.847147 121.602913
[L_mid_hand01]
74 103.859421 1.038730 8.195221 130.544373 -67.584534 -38.866943 104.187431
75 103.859421 1.038730 8.195221 130.544373 -67.584534 -38.866943 104.187431
[L_mid_hand02]
74 105.572853 -4.139662 -10.864139 -168.923172 43.409309 -73.498886 106.211075
75 105.572853 -4.139662 -10.864139 -168.923172 43.409309 -73.498886 106.211075
[L_mid_hand03]
74 104.641464 17.579376 -3.913581 -6.012627 17.808178 74.893677 106.179977
75 104.641464 17.579376 -3.913581 -6.012627 17.808178 74.893677 106.179977
[null_rope02_connect]
74 328.732849 0.000179 -0.000119 -152.492508 64.660805 -31.751442 328.732849
75 328.732849 0.000179 -0.000119 -138.302139 66.223763 -15.218717 328.732849
[Rope2_Seg01]
74 0.000062 -0.001060 0.000000 -79.353401 -43.125916 -93.021698 0.001062
75 0.000061 -0.001076 0.000000 -86.148323 -42.517685 -84.749481 0.001078
[Rope2_Seg02]
74 139.999741 -0.000060 -0.000119 6.421648 -0.849214 7.722244 139.999756
75 139.999741 -0.000060 -0.000119 8.075762 -1.275070 7.935768 139.999756
[Rope2_Seg03]
74 140.000107 0.000030 0.000000 8.979676 -0.328468 9.128583 140.000107
75 140.000107 0.000030 0.000000 11.766182 -0.637610 9.523113 140.000107
[Rope2_Seg04]
74 139.999802 0.000000 -0.000060 13.476562 -1.417984 12.014352 139.999802
75 139.999802 0.000000 -0.000060 18.475021 -1.448274 12.676839 139.999802
[Rope2_Seg05]
74 139.999985 -0.000060 0.000119 9.017148 7.947000 4.802558 139.999985
75 139.999985 -0.000060 0.000119 9.401631 9.501110 3.249769 139.999985
[Rope2_Seg06]
74 139.999893 -0.000030 -0.000119 0.293365 7.787024 -2.853764 139.999893
75 139.999893 -0.000030 -0.000119 -1.158793 8.169302 -4.574606 139.999893
[Rope2_Seg07]
74 139.999893 0.000060 -0.000060 0.949095 3.812562 -0.229008 139.999893
75 139.999893 0.000060 -0.000060 0.649801 4.043139 -0.846383 139.999893
[Rope2_Seg09]
74 121.338966 0.000089 -0.000060 33.793236 -1.359788 -0.847141 121.338966
75 121.338966 0.000089 -0.000060 33.793236 -1.359788 -0.847141 121.338966
[R_mid_hand01]
74 104.680779 11.144459 -10.335981 -16.212063 45.237247 70.462852 105.778534
75 104.680779 11.144459 -10.335981 -16.212063 45.237247 70.462852 105.778534
[R_mid_hand02]
74 104.070427 2.443552 8.231699 49.067387 -67.749794 39.286469 104.424065
75 104.070427 2.443552 8.231699 49.067368 -67.749771 39.286453 104.424065
[R_mid_hand03]
74 106.028137 -11.221827 -5.996406 -177.101105 15.551026 -76.585571 106.788818
75 106.028137 -11.221827 -5.996406 -177.101105 15.551026 -76.585571 106.788818
[spine02]
74 129.756927 0.001550 0.000119 0.375651 -4.043224 -13.161672 129.756927
75 129.756927 0.001550 0.000119 0.373046 -4.043486 -13.115746 129.756927
[spine03]
74 78.613380 0.081769 -4.898854 1.907085 3.827250 16.625513 78.765915
75 78.613365 0.081771 -4.898852 1.905411 3.828585 16.593323 78.765900
[pelvis]
74 169.435242 0.051022 0.000000 0.028816 -0.189157 -13.367232 169.435257
75 169.435242 0.051022 0.000000 0.028060 -0.189270 -12.909221 169.435257
[null_rope03_connect]
74 -1.257226 -2.466202 137.391083 12.950963 -76.448189 75.640793 137.418976
75 -1.257226 -2.466202 137.391083 35.959846 -79.778633 51.636005 137.418976
[null_rope04_connect]
74 -1.259640 -2.480268 -137.844437 12.950963 -76.448189 75.640793 137.872513
75 -1.259640 -2.480268 -137.844437 35.959846 -79.778633 51.636005 137.872513
[Rope3_Seg01]
74 -0.000030 0.000000 -0.000134 7.993163 18.882710 -104.442154 0.000137
75 -0.000030 0.000000 -0.000136 9.126472 20.422550 -101.023933 0.000139
[Rope3_Seg02]
74 139.999924 -0.000119 0.000060 4.377513 -15.604083 13.549666 139.999924
75 139.999924 -0.000119 0.000060 2.493272 -12.701895 14.222084 139.999924
[Rope3_Seg03]
74 139.999924 -0.000119 0.000119 -3.065386 -31.563015 36.297066 139.999924
75 139.999924 -0.000119 0.000119 -6.974500 -27.533682 36.699669 139.999924
[Rope3_Seg04]
74 139.999924 0.000119 0.000000 -5.746493 -21.934286 25.572233 139.999924
75 139.999924 0.000119 0.000000 -10.361259 -22.747581 27.360483 139.999924
[Rope3_Seg05]
74 139.999924 -0.000238 0.000060 -0.945828 -1.464869 9.273331 139.999924
75 139.999924 -0.000238 0.000060 -1.446909 -0.282315 9.726053 139.999924
[Rope3_Seg06]
74 139.999893 -0.000119 -0.000060 1.053226 6.734844 10.069413 139.999893
75 139.999893 -0.000119 -0.000060 2.452804 9.770844 11.479808 139.999893
[Rope3_Seg07]
74 139.999771 0.000060 -0.000119 0.240025 5.309932 10.150793 139.999771
75 139.999771 0.000060 -0.000119 -0.246372 5.304911 10.391721 139.999771
[Rope3_Seg08]
74 139.999985 -0.000060 0.000000 -0.992904 2.159919 6.635089 139.999985
75 139.999985 -0.000060 0.000000 -1.326792 2.777853 6.934863 139.999985
[Rope3_Seg09]
74 90.185997 -0.000179 -0.000060 89.793228 -1.359877 -0.847183 90.185997
75 90.185997 -0.000179 -0.000060 89.793228 -1.359877 -0.847183 90.185997
[R_rear_hand01]
74 103.366196 -6.073594 -10.757982 -177.714203 24.565960 -73.910950 104.101845
75 103.366196 -6.073594 -10.757982 -177.714203 24.565960 -73.910950 104.101845
[R_rear_hand02]
74 100.509819 12.039542 -7.992327 -12.874829 36.868488 72.167213 101.543350
75 100.509819 12.039542 -7.992327 -12.874829 36.868488 72.167213 101.543350
[R_rear_hand03]
74 101.539970 5.215704 5.435467 71.484581 -71.816628 21.513813 101.819031
75 101.539970 5.215704 5.435467 71.484581 -71.816628 21.513813 101.819031
[Rope4_Seg01]
74 -0.000007 -0.001078 -0.000153 -115.740959 -38.643925 -79.550461 0.001089
75 -0.000007 -0.001092 -0.000153 -112.884773 -31.892076 -78.218277 0.001103
[Rope4_Seg02]
74 139.999985 0.000060 0.000119 -1.731845 9.416121 -0.260095 139.999985
75 139.999985 0.000060 0.000119 -1.923817 9.128072 -0.563768 139.999985
[Rope4_Seg03]
74 139.999924 0.000000 -0.000238 -1.416181 11.036637 -0.994814 139.999924
75 139.999924 0.000000 -0.000238 -1.950249 9.391044 -2.431709 139.999924
[Rope4_Seg04]
74 139.999985 0.000000 0.000119 -0.553233 12.702493 -1.453347 139.999985
75 139.999985 0.000000 0.000119 -0.385600 17.015799 0.754039 139.999985
[Rope4_Seg05]
74 139.999802 -0.000060 -0.000119 4.745418 31.430092 11.521286 139.999802
75 139.999802 -0.000060 -0.000119 5.234188 32.792175 16.180809 139.999802
[Rope4_Seg06]
74 139.999924 0.000000 0.000060 3.642010 18.343027 6.255886 139.999924
75 139.999924 0.000000 0.000060 1.638839 13.538083 5.512751 139.999924
[Rope4_Seg07]
74 139.999802 0.000000 0.000000 3.098963 8.046272 1.940678 139.999802
75 139.999802 0.000000 0.000000 1.252766 6.568877 2.372403 139.999802
[Rope4_Seg08]
74 139.999924 0.000000 0.000119 0.812192 4.181349 0.778576 139.999924
75 139.999924 0.000000 0.000119 -0.675460 3.466373 1.168754 139.999924
[Rope4_Seg09]
74 90.185791 0.000060 0.000060 -135.617828 2.228885 0.850567 90.185791
75 90.185791 0.000060 0.000060 -135.617828 2.228885 0.850567 90.185791
[L_rear_hand01]
74 101.696655 -8.392275 -7.654577 -12.874829 -36.868488 107.832764 102.329041
75 101.696655 -8.392275 -7.654577 -12.874829 -36.868488 107.832764 102.329041
[L_rear_hand02]
74 102.726799 -1.568258 5.773216 71.484581 71.816628 158.486160 102.900848
75 102.726799 -1.568258 5.773216 71.484581 71.816628 158.486160 102.900848
[L_rear_hand03]
74 104.552910 9.721220 -10.420293 -177.714203 -24.565960 -106.089035 105.519653
75 104.552910 9.721220 -10.420293 -177.714203 -24.565960 -106.089035 105.519653
